<svg width="100" height="100" viewBox="0 0 100 100" fill="none" xmlns="http://www.w3.org/2000/svg">
<rect width="100" height="100" fill="url(#paint0_linear_882_4161)"/>
<g filter="url(#filter0_d_882_4161)">
<path d="M78.1684 33.551C81.5848 32.6844 84.8546 32.8767 88.0346 34.2294C88.4769 34.4175 88.9122 34.6605 89.2886 34.9571C90.0598 35.565 90.2073 36.5137 89.7149 37.3006C89.2043 38.1164 88.3925 38.347 87.4534 37.8766C84.4262 36.3599 81.303 36.2728 78.1041 37.2002C77.7681 37.2976 77.4098 37.3652 77.1245 37.7424C77.73 38.1293 78.3329 38.4926 78.9136 38.8886C87.6762 44.864 88.2212 57.4653 80.1094 64.2821C71.1786 71.7871 56.7988 67.5844 54.1479 54.757C54.0433 54.2512 53.9005 53.7198 53.9562 53.2205C54.1293 51.6688 53.0684 51.0199 51.9695 50.4661C50.7465 49.8499 49.4997 50.003 48.3814 50.7928C47.5547 51.3766 47.0471 52.0463 46.9651 53.2285C46.4244 61.0153 39.7017 67.6593 32.1837 67.9834C23.723 68.3481 16.5702 62.6778 15.2673 54.5104C14.2716 48.2683 17.0838 41.7443 22.7505 38.4101C23.0535 38.2318 23.3537 38.0489 23.7937 37.7851C22.7593 37.0893 21.709 36.8097 20.6387 36.6937C18.1479 36.4237 15.7305 36.6892 13.4574 37.8594C12.4979 38.3534 11.8023 38.1487 11.294 37.3285C10.7908 36.5167 10.9384 35.6116 11.6995 34.9815C12.2301 34.5421 12.858 34.2671 13.4974 34.0342C18.433 32.2368 23.1035 32.7819 27.4874 35.6723C27.9673 35.9887 28.4096 36.1943 29.0095 36.1343C34.5921 35.5766 39.2438 37.4728 43.026 41.5619C44.4718 43.1249 45.5451 44.9331 46.241 46.9518C46.4167 47.4614 46.6211 47.7305 47.2178 47.4544C49.4391 46.4268 51.6658 46.4781 53.8829 47.493C54.0233 47.5573 54.1845 47.5763 54.3107 47.6097C54.7022 47.331 54.7376 46.9163 54.8706 46.5633C57.2211 40.3207 63.5891 35.8647 70.2557 36.0552C71.9587 36.1039 73.3829 35.9186 74.7774 34.9288C75.7497 34.2387 76.9319 33.894 78.1684 33.551ZM59.4191 58.8691C61.984 62.6368 65.5757 64.6134 70.0997 64.519C77.723 64.36 83.2993 57.6832 82.3227 50.0972C81.428 43.1466 74.3305 38.246 67.4771 39.6796C58.9904 41.4547 54.5479 51.1027 59.4191 58.8691ZM21.6201 43.6433C18.9802 46.8581 17.9284 50.4933 18.7838 54.6045C20.0904 60.8844 26.2684 65.306 32.8175 64.4108C40.862 63.3113 45.9668 54.3156 42.5581 46.9451C38.7657 38.745 28.0091 36.8519 21.6201 43.6433Z" fill="black"/>
<path d="M76.585 50.8737C77.4642 49.9432 77.4513 48.7842 77.5522 47.5786C79.3825 49.5255 79.657 54.8259 76.5622 58.1017C73.0154 61.856 67.0802 62.0487 63.5013 58.5052C59.9062 54.9457 59.8871 49.0427 63.4732 45.4959C67.0044 42.0034 72.5062 42.4395 74.8049 44.5323C72.1704 44.4535 70.2262 45.2658 69.999 48.0666C69.8707 49.6477 70.6431 50.9081 72.0725 51.6265C73.6931 52.4409 75.207 52.1688 76.585 50.8737Z" fill="black"/>
<path d="M33.4941 44.6949C31.9486 45.3672 31.1055 46.4944 31.105 48.1051C31.1045 49.6819 31.8379 50.8978 33.2769 51.6219C34.7615 52.369 36.1552 52.1865 37.4442 51.156C38.3487 50.4329 38.6492 49.432 38.7165 48.3282C38.7293 48.1177 38.5582 47.8878 38.7787 47.6964C40.7304 49.7796 40.6913 54.8919 37.9697 57.8407C34.2584 61.8617 28.5004 62.1433 24.6256 58.4758C21.1189 55.1567 21.0437 49.0956 24.4727 45.5912C27.7406 42.2514 32.7524 42.1452 35.788 44.4709C34.9744 44.5113 34.2426 44.3925 33.4941 44.6949Z" fill="black"/>
<path d="M13.3311 31.9736C18.6753 30.1826 23.8283 30.8649 28.5879 34.0029L28.7812 34.1201C28.8031 34.1317 28.8194 34.1379 28.8301 34.1426C35.0618 33.5256 40.3139 35.6847 44.4941 40.2041L44.7959 40.5391C46.0064 41.9178 46.9702 43.4576 47.6836 45.1348C49.5582 44.5542 51.4446 44.5773 53.29 45.1357C56.1321 38.5108 63.0179 33.8474 70.3125 34.0557L70.8525 34.0615C72.0512 34.0486 72.8468 33.8468 73.6201 33.2979L73.8662 33.1309C75.1104 32.3221 76.5186 31.9333 77.6338 31.624L77.6768 31.6123L78.3906 31.4453C81.9524 30.6773 85.4332 30.9492 88.8174 32.3887L89.249 32.5869C89.683 32.8015 90.1198 33.0662 90.5264 33.3867L90.6699 33.5049C92.0715 34.7143 92.3925 36.6305 91.5029 38.2051L91.4102 38.3613C90.943 39.1078 90.2265 39.7503 89.2529 40.0059C88.4097 40.2272 87.5841 40.1033 86.8613 39.8037L86.5576 39.665C85.0171 38.8932 83.4427 38.5589 81.8066 38.6045C89.8132 45.624 89.9276 58.2132 81.8164 65.4492L81.3965 65.8135C71.4879 74.1403 55.6573 69.6488 52.3379 55.8271L52.1895 55.1621C52.1268 54.859 51.868 53.9028 51.9688 52.999L51.9736 52.8535C51.9712 52.826 51.9668 52.818 51.9688 52.8242C51.9732 52.8381 51.9784 52.8352 51.9502 52.8037C51.9138 52.763 51.8357 52.691 51.6797 52.5898C51.6007 52.5387 51.5126 52.487 51.4121 52.4316L51.0693 52.252C50.6361 52.0337 50.2295 52.0179 49.7471 52.291L49.5352 52.4268C49.2554 52.6243 49.1465 52.7548 49.0938 52.8398C49.0609 52.893 49.0148 52.9841 48.9844 53.1602L48.96 53.3672C48.3609 61.9941 41.0755 69.3778 32.6709 69.959L32.2695 69.9814C22.9876 70.3814 15.0152 64.2373 13.3662 55.2549L13.292 54.8252C12.3402 48.8578 14.4813 42.6435 19.0928 38.5986C17.5362 38.5759 16.084 38.8367 14.7197 39.4678L14.373 39.6377C13.6401 40.015 12.7073 40.2806 11.708 40.0234C10.8183 39.7945 10.1914 39.2337 9.76465 38.6387L9.59375 38.3818C9.11502 37.6093 8.89114 36.6913 9.05078 35.752C9.21026 34.8143 9.72363 34.0213 10.4238 33.4414L10.7285 33.2061C11.4453 32.6876 12.2038 32.3773 12.8135 32.1553L13.3311 31.9736ZM74.7451 46.5312C73.5877 46.4966 72.9261 46.6798 72.582 46.9014C72.3879 47.0264 72.1379 47.2548 72.0293 47.917L71.9922 48.2285C71.9353 48.9305 72.2073 49.4562 72.9707 49.8398L73.1494 49.9229C73.5524 50.094 73.8516 50.1088 74.084 50.0693C74.3514 50.0239 74.7098 49.8727 75.1582 49.4658C75.2658 49.3416 75.3454 49.1895 75.4053 48.9102C75.4891 48.5189 75.4982 48.1455 75.5596 47.4121L75.6309 46.5576L74.7451 46.5312ZM35.8867 46.4688C35.625 46.4817 35.3793 46.4812 35.1836 46.4805C34.9727 46.4797 34.8276 46.4785 34.6865 46.4834C34.4506 46.4916 34.3378 46.5149 34.2666 46.54C33.7606 46.7642 33.4936 47.0068 33.3496 47.209C33.2137 47.3998 33.1056 47.6674 33.1055 48.1055L33.1084 48.2568C33.1452 48.996 33.4641 49.4767 34.1758 49.835L34.3389 49.9121C34.7066 50.0703 34.9853 50.0946 35.2021 50.0693C35.4555 50.0398 35.7834 49.923 36.1953 49.5938L36.2969 49.5039C36.5054 49.2948 36.6491 48.9805 36.7051 48.3672C36.6986 48.3291 36.69 48.2908 36.6855 48.2559C36.6606 48.0583 36.6366 47.7 36.7588 47.2832C36.859 46.9417 37.0317 46.6451 37.25 46.4004L35.8867 46.4688ZM36.7354 48.5371C36.7376 48.5504 36.7392 48.5586 36.7393 48.5586C36.744 48.5824 36.7414 48.564 36.7334 48.5244C36.7341 48.529 36.7348 48.5336 36.7354 48.5371Z" stroke="white" stroke-width="4"/>
</g>
<defs>
<filter id="filter0_d_882_4161" x="1" y="25" width="99" height="55" filterUnits="userSpaceOnUse" color-interpolation-filters="sRGB">
<feFlood flood-opacity="0" result="BackgroundImageFix"/>
<feColorMatrix in="SourceAlpha" type="matrix" values="0 0 0 0 0 0 0 0 0 0 0 0 0 0 0 0 0 0 127 0" result="hardAlpha"/>
<feOffset dy="2"/>
<feGaussianBlur stdDeviation="3"/>
<feComposite in2="hardAlpha" operator="out"/>
<feColorMatrix type="matrix" values="0 0 0 0 0 0 0 0 0 0 0 0 0 0 0 0 0 0 0.1 0"/>
<feBlend mode="normal" in2="BackgroundImageFix" result="effect1_dropShadow_882_4161"/>
<feBlend mode="normal" in="SourceGraphic" in2="effect1_dropShadow_882_4161" result="shape"/>
</filter>
<linearGradient id="paint0_linear_882_4161" x1="50" y1="0" x2="50" y2="100" gradientUnits="userSpaceOnUse">
<stop stop-color="#9C8BFE"/>
<stop offset="1" stop-color="#7B66FF"/>
</linearGradient>
</defs>
</svg>
